# xmcd
#
# Track frame offsets:
#	150
#	16545
#	31132
#	46745
#	65540
#	84052
#	99835
#	120042
#	136130
#	149960
#	168282
#	191170
#	208867
#	223135
#
# Disc length: 3163 seconds
#
# Revision: 0
# Processed by: cddbd v1.5.1PL0 Copyright (c) Steve Scherf et al.
# Submitted via: audiograbber 1.83.01
#
DISCID=b50c590e
DTITLE=StarDisc - SD042 - Country Hits Today
DYEAR=1900
DGENRE=Karaoke
TTITLE0=Trisha Yearwood with Garth Brooks - In Another's Eyes
TTITLE1=George Strait - Today My World Slipped Away
TTITLE2=Brooks and Dunn - Honky Tonk Truth
TTITLE3=Reba McEntire - What If It's You
TTITLE4=Clint Black - Something That We Do
TTITLE5=Trace Adkins - The Rest of Mine
TTITLE6=Lonestar - You Walked In
TTITLE7=Pam Tillis - Land of The Living
TTITLE8=Tracy Byrd - Good Old Fashioned Love
TTITLE9=The Buffalo Club - Nothing Less Than love
TTITLE10=Kathy Mattea - Love Travels
TTITLE11=Sara Evans - Three Chords And The Truth
TTITLE12=Wade Hayes - Wichita Lineman
TTITLE13=Rick Trevino - See Rock City
EXTD=
EXTT0=
EXTT1=
EXTT2=
EXTT3=
EXTT4=
EXTT5=
EXTT6=
EXTT7=
EXTT8=
EXTT9=
EXTT10=
EXTT11=
EXTT12=
EXTT13=
PLAYORDER=
